name C:\Users\u0101727\Documents\MyRepositories\upper-imu-dc\Results\main_tracking\Case_47\FLX03_angularVelocities_bodyFrame.mot
datacolumns 4
datarows 117
range 2.13000000 3.29000000
endheader 
time	radius_imu_x	radius_imu_y	radius_imu_z	
          2.13000000	         -1.61174461	          0.66694639	          0.17482063	
          2.14000000	         -1.59509325	          0.61270393	          0.13479042	
          2.15000000	         -1.57696312	          0.56136426	          0.09560935	
          2.16000000	         -1.55757172	          0.51366176	          0.05733499	
          2.17000000	         -1.53715982	          0.47027592	          0.02000753	
          2.18000000	         -1.51598234	          0.43182252	         -0.01634878	
          2.19000000	         -1.49429596	          0.39883990	         -0.05172445	
          2.20000000	         -1.47234486	          0.37176716	         -0.08612361	
          2.21000000	         -1.45034627	          0.35091068	         -0.11956271	
          2.22000000	         -1.42847779	          0.33639897	         -0.15206855	
          2.23000000	         -1.40686877	          0.32813192	         -0.18367514	
          2.24000000	         -1.38559802	          0.32573690	         -0.21441957	
          2.25000000	         -1.36469859	          0.32854917	         -0.24433742	
          2.26000000	         -1.34416868	          0.33563123	         -0.27345823	
          2.27000000	         -1.32398564	          0.34583233	         -0.30180152	
          2.28000000	         -1.30411918	          0.35787513	         -0.32937353	
          2.29000000	         -1.28454154	          0.37045245	         -0.35616531	
          2.30000000	         -1.26523390	          0.38231975	         -0.38215234	
          2.31000000	         -1.24618998	          0.39237415	         -0.40729550	
          2.32000000	         -1.22741856	          0.39971616	         -0.43154238	
          2.33000000	         -1.20894517	          0.40369201	         -0.45482828	
          2.34000000	         -1.19081345	          0.40391292	         -0.47707671	
          2.35000000	         -1.17308534	          0.40024718	         -0.49820008	
          2.36000000	         -1.15583883	          0.39278502	         -0.51810154	
          2.37000000	         -1.13916411	          0.38178503	         -0.53667926	
          2.38000000	         -1.12315695	          0.36761798	         -0.55383333	
          2.39000000	         -1.10791258	          0.35072382	         -0.56947549	
          2.40000000	         -1.09352003	          0.33158382	         -0.58354041	
          2.41000000	         -1.08005505	          0.31070777	         -0.59599504	
          2.42000000	         -1.06757260	          0.28862380	         -0.60684514	
          2.43000000	         -1.05610116	          0.26586631	         -0.61613953	
          2.44000000	         -1.04563951	          0.24296783	         -0.62397210	
          2.45000000	         -1.03615560	          0.22044984	         -0.63048140	
          2.46000000	         -1.02758910	          0.19881131	         -0.63584755	
          2.47000000	         -1.01985605	          0.17851406	         -0.64028536	
          2.48000000	         -1.01285437	          0.15996575	         -0.64403322	
          2.49000000	         -1.00646904	          0.14350498	         -0.64733829	
          2.50000000	         -1.00057552	          0.12939329	         -0.65043911	
          2.51000000	         -0.99504116	          0.11781712	         -0.65354848	
          2.52000000	         -0.98972557	          0.10889860	         -0.65683975	
          2.53000000	         -0.98448082	          0.10271164	         -0.66043893	
          2.54000000	         -0.97915248	          0.09929878	         -0.66442327	
          2.55000000	         -0.97358177	          0.09868396	         -0.66882500	
          2.56000000	         -0.96760885	          0.10087736	         -0.67363819	
          2.57000000	         -0.96107669	          0.10587129	         -0.67882687	
          2.58000000	         -0.95383494	          0.11363028	         -0.68433291	
          2.59000000	         -0.94574280	          0.12408014	         -0.69008251	
          2.60000000	         -0.93667104	          0.13710023	         -0.69599060	
          2.61000000	         -0.92650344	          0.15251977	         -0.70196299	
          2.62000000	         -0.91513845	          0.17011709	         -0.70789725	
          2.63000000	         -0.90249148	          0.18962093	         -0.71368379	
          2.64000000	         -0.88849791	          0.21071478	         -0.71920829	
          2.65000000	         -0.87311654	          0.23304464	         -0.72435603	
          2.66000000	         -0.85633343	          0.25622870	         -0.72901784	
          2.67000000	         -0.83816592	          0.27986745	         -0.73309690	
          2.68000000	         -0.81866649	          0.30355322	         -0.73651618	
          2.69000000	         -0.79792569	          0.32688002	         -0.73922580	
          2.70000000	         -0.77607298	          0.34945473	         -0.74120958	
          2.71000000	         -0.75327482	          0.37091046	         -0.74248950	
          2.72000000	         -0.72972946	          0.39092130	         -0.74312695	
          2.73000000	         -0.70565876	          0.40921605	         -0.74322007	
          2.74000000	         -0.68129806	          0.42558746	         -0.74289741	
          2.75000000	         -0.65688553	          0.43989502	         -0.74230859	
          2.76000000	         -0.63265194	          0.45206065	         -0.74161374	
          2.77000000	         -0.60881172	          0.46205707	         -0.74097293	
          2.78000000	         -0.58555610	          0.46989642	         -0.74053687	
          2.79000000	         -0.56304803	          0.47561935	         -0.74043899	
          2.80000000	         -0.54141866	          0.47928445	         -0.74078976	
          2.81000000	         -0.52076495	          0.48096061	         -0.74167310	
          2.82000000	         -0.50114871	          0.48072222	         -0.74314572	
          2.83000000	         -0.48259754	          0.47864347	         -0.74523931	
          2.84000000	         -0.46510832	          0.47479165	         -0.74796445	
          2.85000000	         -0.44865353	          0.46922180	         -0.75131455	
          2.86000000	         -0.43318939	          0.46197542	         -0.75526875	
          2.87000000	         -0.41866395	          0.45308695	         -0.75979321	
          2.88000000	         -0.40502334	          0.44259893	         -0.76484196	
          2.89000000	         -0.39221478	          0.43058431	         -0.77035903	
          2.90000000	         -0.38018574	          0.41717065	         -0.77628347	
          2.91000000	         -0.36887993	          0.40255975	         -0.78255659	
          2.92000000	         -0.35823363	          0.38703227	         -0.78912870	
          2.93000000	         -0.34817317	          0.37093392	         -0.79596188	
          2.94000000	         -0.33861395	          0.35465434	         -0.80302522	
          2.95000000	         -0.32946397	          0.33859363	         -0.81028653	
          2.96000000	         -0.32063210	          0.32312316	         -0.81770343	
          2.97000000	         -0.31203786	          0.30855551	         -0.82521536	
          2.98000000	         -0.30362078	          0.29512272	         -0.83273890	
          2.99000000	         -0.29534845	          0.28296406	         -0.84016624	
          3.00000000	         -0.28721962	          0.27212588	         -0.84736657	
          3.01000000	         -0.27926293	          0.26257013	         -0.85418982	
          3.02000000	         -0.27153258	          0.25418782	         -0.86047204	
          3.03000000	         -0.26410213	          0.24681560	         -0.86604240	
          3.04000000	         -0.25705786	          0.24025447	         -0.87073133	
          3.05000000	         -0.25049191	          0.23428973	         -0.87437882	
          3.06000000	         -0.24449517	          0.22870951	         -0.87684254	
          3.07000000	         -0.23914978	          0.22331963	         -0.87800494	
          3.08000000	         -0.23452156	          0.21795558	         -0.87777905	
          3.09000000	         -0.23065317	          0.21249318	         -0.87611192	
          3.10000000	         -0.22755883	          0.20685715	         -0.87298431	
          3.11000000	         -0.22522191	          0.20102378	         -0.86840575	
          3.12000000	         -0.22359608	          0.19501493	         -0.86240561	
          3.13000000	         -0.22260953	          0.18888642	         -0.85502227	
          3.14000000	         -0.22217133	          0.18271817	         -0.84629402	
          3.15000000	         -0.22217789	          0.17661180	         -0.83625437	
          3.16000000	         -0.22251832	          0.17069577	         -0.82493311	
          3.17000000	         -0.22307797	          0.16513320	         -0.81236175	
          3.18000000	         -0.22374075	          0.16012509	         -0.79858068	
          3.19000000	         -0.22439133	          0.15590258	         -0.78364532	
          3.20000000	         -0.22491796	          0.15270663	         -0.76762937	
          3.21000000	         -0.22521624	          0.15075953	         -0.75062503	
          3.22000000	         -0.22519363	          0.15023530	         -0.73274066	
          3.23000000	         -0.22477362	          0.15123407	         -0.71409664	
          3.24000000	         -0.22389873	          0.15376421	         -0.69482050	
          3.25000000	         -0.22253184	          0.15773449	         -0.67504210	
          3.26000000	         -0.22065547	          0.16295723	         -0.65489011	
          3.27000000	         -0.21826946	          0.16916092	         -0.63449035	
          3.28000000	         -0.21538735	          0.17600953	         -0.61396610	
          3.29000000	         -0.21203195	          0.18312609	         -0.59344008	
